{"accessors":[{"bufferView":1,"componentType":5126,"count":904,"max":[1.5886813402175903,1.3094406127929688,0.04971420764923096],"min":[-1.3665969371795654,-1.8792667388916016,-0.04832804203033447],"type":"VEC3"},{"bufferView":1,"byteOffset":10848,"componentType":5126,"count":904,"max":[0.9999873638153076,0.9999877214431763,1],"min":[-0.9999990463256836,-0.9999872446060181,-1],"type":"VEC3"},{"bufferView":0,"componentType":5125,"count":5184,"max":[903],"min":[0],"type":"SCALAR"},{"bufferView":1,"byteOffset":21696,"componentType":5126,"count":4482,"max":[1.9528651237487793,1.9967899322509766,0.08509445190429688],"min":[-1.9609308242797852,-2.081650972366333,-0.12992918491363525],"type":"VEC3"},{"bufferView":1,"byteOffset":75480,"componentType":5126,"count":4482,"max":[0.981663167476654,0.9947283267974854,0.9995770454406738],"min":[-1,-0.9914745688438416,-0.9999336004257202],"type":"VEC3"},{"bufferView":0,"byteOffset":20736,"componentType":5125,"count":26754,"max":[4481],"min":[0],"type":"SCALAR"},{"bufferView":1,"byteOffset":129264,"componentType":5126,"count":880,"max":[194.90330505371094,41.794734954833984,45.712581634521484],"min":[-53.80793380737305,-223.72268676757812,-69.22857666015625],"type":"VEC3"},{"bufferView":1,"byteOffset":139824,"componentType":5126,"count":880,"max":[0.9975337386131287,0.9988897442817688,0.9995536804199219],"min":[-0.999192476272583,-0.9989503026008606,-0.9996898174285889],"type":"VEC3"},{"bufferView":0,"byteOffset":127752,"componentType":5125,"count":4620,"max":[879],"min":[0],"type":"SCALAR"},{"bufferView":1,"byteOffset":150384,"componentType":5126,"count":448,"max":[190.1365203857422,42.90306091308594,44.39961624145508],"min":[-53.29778289794922,-232.63482666015625,-70.78064727783203],"type":"VEC3"},{"bufferView":1,"byteOffset":155760,"componentType":5126,"count":448,"max":[0.9991103410720825,0.9997869729995728,0.999746561050415],"min":[-0.9930576086044312,-0.9953348636627197,-0.9992105960845947],"type":"VEC3"},{"bufferView":0,"byteOffset":146232,"componentType":5125,"count":2352,"max":[447],"min":[0],"type":"SCALAR"},{"bufferView":1,"byteOffset":161136,"componentType":5126,"count":272,"max":[194.81480407714844,18.905269622802734,46.79261779785156],"min":[-56.292274475097656,-234.4840545654297,-68.39958953857422],"type":"VEC3"},{"bufferView":1,"byteOffset":164400,"componentType":5126,"count":272,"max":[0.9789990782737732,0.9986116290092468,0.9996414184570312],"min":[-0.9989333748817444,-0.9981293678283691,-0.9999845027923584],"type":"VEC3"},{"bufferView":0,"byteOffset":155640,"componentType":5125,"count":1428,"max":[271],"min":[0],"type":"SCALAR"},{"bufferView":1,"byteOffset":167664,"componentType":5126,"count":432,"max":[1.9906126260757446,1.9955720901489258,0.11407692730426788],"min":[-1.9916961193084717,-1.9839379787445068,-0.11726336181163788],"type":"VEC3"},{"bufferView":1,"byteOffset":172848,"componentType":5126,"count":432,"max":[0.9947125315666199,0.9930245876312256,0.9999953508377075],"min":[-0.9986042380332947,-0.9913473129272461,-0.9982876777648926],"type":"VEC3"},{"bufferView":0,"byteOffset":161352,"componentType":5125,"count":2580,"max":[431],"min":[0],"type":"SCALAR"},{"bufferView":1,"byteOffset":178032,"componentType":5126,"count":834,"max":[1.9903924465179443,1.9903922080993652,0.19999945163726807],"min":[-1.9903926849365234,-1.9903934001922607,-0.2000006139278412],"type":"VEC3"},{"bufferView":1,"byteOffset":188040,"componentType":5126,"count":834,"max":[1,1,1],"min":[-1,-1,-1],"type":"VEC3"},{"bufferView":0,"byteOffset":171672,"componentType":5125,"count":4992,"max":[833],"min":[0],"type":"SCALAR"},{"bufferView":1,"byteOffset":198048,"componentType":5126,"count":432,"max":[1.9723063707351685,1.9770785570144653,0.11407691240310669],"min":[-1.976080060005188,-1.9688818454742432,-0.11726334691047668],"type":"VEC3"},{"bufferView":1,"byteOffset":203232,"componentType":5126,"count":432,"max":[0.9904702305793762,0.993026614189148,0.9999953508377075],"min":[-0.9926568865776062,-0.9978309869766235,-0.9982872009277344],"type":"VEC3"},{"bufferView":0,"byteOffset":191640,"componentType":5125,"count":2580,"max":[431],"min":[0],"type":"SCALAR"},{"bufferView":1,"byteOffset":208416,"componentType":5126,"count":10721,"max":[2.233281135559082,2.1075544357299805,0.7341511249542236],"min":[-1.9143121242523193,-2.077141284942627,-0.8511784076690674],"type":"VEC3"},{"bufferView":1,"byteOffset":337068,"componentType":5126,"count":10721,"max":[0.9999406337738037,0.9999110698699951,1],"min":[-0.9999524354934692,-0.9999436140060425,-1],"type":"VEC3"},{"bufferView":0,"byteOffset":201960,"componentType":5125,"count":64302,"max":[10720],"min":[0],"type":"SCALAR"},{"bufferView":1,"byteOffset":465720,"componentType":5126,"count":834,"max":[1.9903924465179443,1.9903922080993652,0.19999945163726807],"min":[-1.9903926849365234,-1.9903934001922607,-0.2000006139278412],"type":"VEC3"},{"bufferView":1,"byteOffset":475728,"componentType":5126,"count":834,"max":[1,1,1],"min":[-1,-1,-1],"type":"VEC3"},{"bufferView":0,"byteOffset":459168,"componentType":5125,"count":4992,"max":[833],"min":[0],"type":"SCALAR"},{"bufferView":1,"byteOffset":485736,"componentType":5126,"count":834,"max":[1.9903924465179443,1.9903922080993652,0.19999945163726807],"min":[-1.9903926849365234,-1.9903934001922607,-0.2000006139278412],"type":"VEC3"},{"bufferView":1,"byteOffset":495744,"componentType":5126,"count":834,"max":[1,1,1],"min":[-1,-1,-1],"type":"VEC3"},{"bufferView":0,"byteOffset":479136,"componentType":5125,"count":4992,"max":[833],"min":[0],"type":"SCALAR"}],"asset":{"extras":{"author":"3DMish (https://sketchfab.com/3dmish)","license":"CC-BY-4.0 (http://creativecommons.org/licenses/by/4.0/)","source":"https://sketchfab.com/3d-models/chocolate-cake-10e171454c1148be96e684fcf3b48d3b","title":"Chocolate Cake"},"generator":"Sketchfab-6.33.0","version":"2.0"},"bufferViews":[{"buffer":0,"byteLength":499104,"byteOffset":0,"name":"floatBufferViews","target":34963},{"buffer":0,"byteLength":505752,"byteOffset":499104,"byteStride":12,"name":"floatBufferViews","target":34962}],"buffers":[{"byteLength":1004856,"uri":"data:application/octet-stream;base64,"}],"materials":[{"doubleSided":true,"name":"Material.002","pbrMetallicRoughness":{"baseColorFactor":[0.6452743902439025,0.6452743902439025,0.6452743902439025,1],"metallicFactor":0.36756859756097565,"roughnessFactor":0.7299923780487805}},{"doubleSided":true,"emissiveFactor":[0,0,0],"name":"Material.004","pbrMetallicRoughness":{"baseColorFactor":[1,0.0017594600000000009,0,1],"metallicFactor":0,"roughnessFactor":0.8239417257461427}},{"doubleSided":true,"emissiveFactor":[0,0,0],"name":"Material.005","pbrMetallicRoughness":{"baseColorFactor":[0,0.8,0.001826,1],"metallicFactor":0,"roughnessFactor":0.8239417257461427}},{"doubleSided":true,"emissiveFactor":[0,0,0],"name":"Material.006","pbrMetallicRoughness":{"baseColorFactor":[0.00507369,0.012842,0.8,1],"metallicFactor":0,"roughnessFactor":0.8239417257461427}},{"doubleSided":true,"name":"Material","pbrMetallicRoughness":{"baseColorFactor":[0.8,0.159524,0.0147727,1],"metallicFactor":0,"roughnessFactor":0.5775533536585367}},{"doubleSided":true,"emissiveFactor":[0,0,0],"name":"Material.003","pbrMetallicRoughness":{"baseColorFactor":[0.0699745,0.017190900000000002,0.006042710000000002,1],"metallicFactor":0.410251524390244,"roughnessFactor":0.21779725609756095}}],"meshes":[{"name":"BezierCurve.001_Material.002_0","primitives":[{"attributes":{"NORMAL":1,"POSITION":0},"indices":2,"material":0,"mode":4}]},{"name":"BezierCurve_Material.002_0","primitives":[{"attributes":{"NORMAL":4,"POSITION":3},"indices":5,"material":0,"mode":4}]},{"name":"Cylinder.042_Material.004_0","primitives":[{"attributes":{"NORMAL":7,"POSITION":6},"indices":8,"material":1,"mode":4}]},{"name":"Cylinder.042_Material.005_0","primitives":[{"attributes":{"NORMAL":10,"POSITION":9},"indices":11,"material":2,"mode":4}]},{"name":"Cylinder.042_Material.006_0","primitives":[{"attributes":{"NORMAL":13,"POSITION":12},"indices":14,"material":3,"mode":4}]},{"name":"Cube.002_Material.002_0","primitives":[{"attributes":{"NORMAL":16,"POSITION":15},"indices":17,"material":0,"mode":4}]},{"name":"Cylinder.002_Material_0","primitives":[{"attributes":{"NORMAL":19,"POSITION":18},"indices":20,"material":4,"mode":4}]},{"name":"Cube.001_Material.002_0","primitives":[{"attributes":{"NORMAL":22,"POSITION":21},"indices":23,"material":0,"mode":4}]},{"name":"Cube_Material.003_0","primitives":[{"attributes":{"NORMAL":25,"POSITION":24},"indices":26,"material":5,"mode":4}]},{"name":"Cylinder_Material_0","primitives":[{"attributes":{"NORMAL":28,"POSITION":27},"indices":29,"material":4,"mode":4}]},{"name":"Cylinder.003_Material_0","primitives":[{"attributes":{"NORMAL":31,"POSITION":30},"indices":32,"material":4,"mode":4}]}],"nodes":[{"children":[1],"name":"RootNode (gltf orientation matrix)","rotation":[-0.7071067811865475,0,0,0.7071067811865476]},{"children":[2],"name":"RootNode (model correction matrix)"},{"children":[3],"matrix":[1,0,0,0,0,0,1,0,0,-1,0,0,0,0,0,1],"name":"63cc32e6b2d14403967352dd60cf2b77.fbx"},{"children":[4,6,8,12,14,16,18,20,22,24],"name":"RootNode"},{"children":[5],"matrix":[100,0,0,0,0,0.5463529682573878,-99.99851511054072,0,0,99.99851511054072,0.5463529682573878,0,-3.68570876121521,152.55311584472656,-13.867103576660156,1],"name":"BezierCurve.001"},{"mesh":0,"name":"BezierCurve.001_Material.002_0"},{"children":[7],"matrix":[100,0,0,0,0,-0.000004371139006309477,-99.9999999999999,0,0,99.9999999999999,-0.000004371139006309477,0,6.455352783203125,150.51734924316406,-8.82603931427002,1],"name":"BezierCurve"},{"mesh":1,"name":"BezierCurve_Material.002_0"},{"children":[9,10,11],"matrix":[-0.5749577237356441,-0.693928617000843,-0.34948175236820805,0,0.34388165454886427,-0.6171409773135734,0.6596463763435847,0,-2.090162463933724,0.8041508213566962,1.8419610775519135,0,48.93252182006836,152.5591583251953,109.58768463134766,1],"name":"Cylinder.042"},{"mesh":2,"name":"Cylinder.042_Material.004_0"},{"mesh":3,"name":"Cylinder.042_Material.005_0"},{"mesh":4,"name":"Cylinder.042_Material.006_0"},{"children":[13],"matrix":[100,0,0,0,0,-0.000004371139006309477,-99.9999999999999,0,0,99.9999999999999,-0.000004371139006309477,0,0.6365556120872498,94.49667358398438,-2.3696084022521973,1],"name":"Cube.002"},{"mesh":5,"name":"Cube.002_Material.002_0"},{"children":[15],"matrix":[100,0,0,0,0,-0.000004371139006309477,-99.9999999999999,0,0,99.9999999999999,-0.000004371139006309477,0,0.000010710209608078003,67.18170928955078,-0.00006370246410369873,1],"name":"Cylinder.002"},{"mesh":6,"name":"Cylinder.002_Material_0"},{"children":[17],"matrix":[100,0,0,0,0,-0.000004371139006309477,-99.9999999999999,0,0,99.9999999999999,-0.000004371139006309477,0,0.6365556120872498,43.611724853515625,-2.3696084022521973,1],"name":"Cube.001"},{"mesh":7,"name":"Cube.001_Material.002_0"},{"children":[19],"matrix":[100,0,0,0,0,-0.000004371139006309477,-99.9999999999999,0,0,99.9999999999999,-0.000004371139006309477,0,-18.111648559570312,79.52132415771484,4.438819885253906,1],"name":"Cube"},{"mesh":8,"name":"Cube_Material.003_0"},{"children":[21],"matrix":[100,0,0,0,0,-0.000004371139006309477,-99.9999999999999,0,0,99.9999999999999,-0.000004371139006309477,0,0.000010710209608078003,20.00005340576172,-0.00006370246410369873,1],"name":"Cylinder"},{"mesh":9,"name":"Cylinder_Material_0"},{"children":[23],"matrix":[100,0,0,0,0,-0.000004371139006309477,-99.9999999999999,0,0,99.9999999999999,-0.000004371139006309477,0,0.000010710209608078003,118.06665802001953,-0.00006370246410369873,1],"name":"Cylinder.003"},{"mesh":10,"name":"Cylinder.003_Material_0"},{"children":[25],"matrix":[3.327116486764403,-30.98150763843448,-95.02145273743781,0,1.0841345700030636,95.07967608817798,-30.962530925659742,0,99.93876361026686,-9.468986762133109e-7,3.499293347258114,0,-29.549312591552734,274.5416564941406,668.980712890625,1],"name":"Camera"},{"name":""}],"scene":0,"scenes":[{"name":"OSG_Scene","nodes":[0]}]}